# xmcd
#
# Track frame offsets:
#	150
#	12331
#	24430
#	37190
#	50759
#	60902
#	73824
#	87342
#	100912
#	114647
#	128634
#	142181
#	155809
#	168134
#	179993
#	193730
#	208509
#	222048
#	236192
#	249755
#	263170
#	275863
#	289427
#	302932
#	315675
#
# Disc length: 4390 seconds
#
# Revision: 0
# Processed by: cddbd v1.5.1PL0 Copyright (c) Steve Scherf et al.
# Submitted via: dBpowerAMP V4.0
#
DISCID=89112419
DTITLE=Various Artist - Country Mundo Hits Vol. 4
DYEAR=1900
DGENRE=
TTITLE0=When loves comes around the bend
TTITLE1=Out of the Blue
TTITLE2=I never met a woman that I didn't  like
TTITLE3=Hearts of the sun
TTITLE4=She takes the sab out saturday night
TTITLE5=Twang Town
TTITLE6=Unbreakable heart
TTITLE7=The secret of lfe
TTITLE8=Yellow river
TTITLE9=Summertime blues
TTITLE10=Karma Camaleon
TTITLE11=Who the fuck is Alice
TTITLE12=Time after time
TTITLE13=There's a kind of hush
TTITLE14=You win my love
TTITLE15=Something in the way she moves
TTITLE16=Take me as I am
TTITLE17=Ride like the wind
TTITLE18=He ain't heavy, he's my brother
TTITLE19=Thinking problems
TTITLE20=You are not in Kansas anymore
TTITLE21=Baby I lied
TTITLE22=Maggie Mae
TTITLE23=Most Likely to succeed
TTITLE24=One way ticket
EXTD=www.paradoxxmusic.com - Carlos Marques
EXTT0=
EXTT1=
EXTT2=
EXTT3=
EXTT4=
EXTT5=
EXTT6=
EXTT7=
EXTT8=
EXTT9=
EXTT10=
EXTT11=
EXTT12=
EXTT13=
EXTT14=
EXTT15=
EXTT16=
EXTT17=
EXTT18=
EXTT19=
EXTT20=
EXTT21=
EXTT22=
EXTT23=
EXTT24=
PLAYORDER=
